<mxfile host="app.diagrams.net" agent="Mozilla/5.0 (Windows NT 10.0; Win64; x64) AppleWebKit/537.36 (KHTML, like Gecko) Chrome/131.0.0.0 Safari/537.36" version="25.0.3">
  <diagram id="C5RBs43oDa-KdzZeNtuy" name="Page-1">
    <mxGraphModel dx="1434" dy="728" grid="1" gridSize="10" guides="1" tooltips="1" connect="1" arrows="1" fold="1" page="1" pageScale="1" pageWidth="827" pageHeight="1169" math="0" shadow="0">
      <root>
        <mxCell id="WIyWlLk6GJQsqaUBKTNV-0" />
        <mxCell id="WIyWlLk6GJQsqaUBKTNV-1" parent="WIyWlLk6GJQsqaUBKTNV-0" />
        <mxCell id="WIyWlLk6GJQsqaUBKTNV-3" value="Играчка" style="rounded=1;whiteSpace=wrap;html=1;fontSize=12;glass=0;strokeWidth=1;shadow=0;" parent="WIyWlLk6GJQsqaUBKTNV-1" vertex="1">
          <mxGeometry x="294" y="150" width="120" height="40" as="geometry" />
        </mxCell>
        <mxCell id="oH-rfcBVR8izi7uhG8WI-1" value="Поръчка" style="rounded=1;whiteSpace=wrap;html=1;" vertex="1" parent="WIyWlLk6GJQsqaUBKTNV-1">
          <mxGeometry x="294" y="280" width="120" height="40" as="geometry" />
        </mxCell>
        <mxCell id="oH-rfcBVR8izi7uhG8WI-2" value="Клиент" style="rounded=1;whiteSpace=wrap;html=1;" vertex="1" parent="WIyWlLk6GJQsqaUBKTNV-1">
          <mxGeometry x="294" y="400" width="120" height="40" as="geometry" />
        </mxCell>
        <mxCell id="oH-rfcBVR8izi7uhG8WI-3" value="име" style="ellipse;whiteSpace=wrap;html=1;" vertex="1" parent="WIyWlLk6GJQsqaUBKTNV-1">
          <mxGeometry x="240" y="120" width="60" height="40" as="geometry" />
        </mxCell>
        <mxCell id="oH-rfcBVR8izi7uhG8WI-4" value="снимка" style="ellipse;whiteSpace=wrap;html=1;" vertex="1" parent="WIyWlLk6GJQsqaUBKTNV-1">
          <mxGeometry x="321" y="110" width="66" height="40" as="geometry" />
        </mxCell>
        <mxCell id="oH-rfcBVR8izi7uhG8WI-5" value="описание" style="ellipse;whiteSpace=wrap;html=1;" vertex="1" parent="WIyWlLk6GJQsqaUBKTNV-1">
          <mxGeometry x="400" y="170" width="70" height="40" as="geometry" />
        </mxCell>
        <mxCell id="oH-rfcBVR8izi7uhG8WI-6" value="id" style="ellipse;whiteSpace=wrap;html=1;" vertex="1" parent="WIyWlLk6GJQsqaUBKTNV-1">
          <mxGeometry x="224" y="170" width="70" height="40" as="geometry" />
        </mxCell>
        <mxCell id="oH-rfcBVR8izi7uhG8WI-7" value="цена" style="ellipse;whiteSpace=wrap;html=1;" vertex="1" parent="WIyWlLk6GJQsqaUBKTNV-1">
          <mxGeometry x="400" y="120" width="60" height="40" as="geometry" />
        </mxCell>
        <mxCell id="oH-rfcBVR8izi7uhG8WI-10" value="" style="endArrow=none;html=1;rounded=0;" edge="1" parent="WIyWlLk6GJQsqaUBKTNV-1" source="oH-rfcBVR8izi7uhG8WI-11" target="WIyWlLk6GJQsqaUBKTNV-3">
          <mxGeometry width="50" height="50" relative="1" as="geometry">
            <mxPoint x="390" y="380" as="sourcePoint" />
            <mxPoint x="390" y="340" as="targetPoint" />
            <Array as="points" />
          </mxGeometry>
        </mxCell>
        <mxCell id="oH-rfcBVR8izi7uhG8WI-12" value="" style="endArrow=none;html=1;rounded=0;" edge="1" parent="WIyWlLk6GJQsqaUBKTNV-1" source="oH-rfcBVR8izi7uhG8WI-1" target="oH-rfcBVR8izi7uhG8WI-11">
          <mxGeometry width="50" height="50" relative="1" as="geometry">
            <mxPoint x="354" y="280" as="sourcePoint" />
            <mxPoint x="354" y="190" as="targetPoint" />
            <Array as="points" />
          </mxGeometry>
        </mxCell>
        <mxCell id="oH-rfcBVR8izi7uhG8WI-11" value="has" style="rhombus;whiteSpace=wrap;html=1;" vertex="1" parent="WIyWlLk6GJQsqaUBKTNV-1">
          <mxGeometry x="334" y="220" width="40" height="40" as="geometry" />
        </mxCell>
        <mxCell id="oH-rfcBVR8izi7uhG8WI-13" value="n" style="rounded=0;whiteSpace=wrap;html=1;" vertex="1" parent="WIyWlLk6GJQsqaUBKTNV-1">
          <mxGeometry x="360" y="220" width="20" height="10" as="geometry" />
        </mxCell>
        <mxCell id="oH-rfcBVR8izi7uhG8WI-14" value="m" style="rounded=0;whiteSpace=wrap;html=1;" vertex="1" parent="WIyWlLk6GJQsqaUBKTNV-1">
          <mxGeometry x="360" y="250" width="20" height="10" as="geometry" />
        </mxCell>
        <mxCell id="oH-rfcBVR8izi7uhG8WI-15" value="" style="endArrow=none;html=1;rounded=0;" edge="1" parent="WIyWlLk6GJQsqaUBKTNV-1" source="oH-rfcBVR8izi7uhG8WI-16" target="oH-rfcBVR8izi7uhG8WI-1">
          <mxGeometry width="50" height="50" relative="1" as="geometry">
            <mxPoint x="390" y="400" as="sourcePoint" />
            <mxPoint x="440" y="350" as="targetPoint" />
          </mxGeometry>
        </mxCell>
        <mxCell id="oH-rfcBVR8izi7uhG8WI-17" value="" style="endArrow=none;html=1;rounded=0;" edge="1" parent="WIyWlLk6GJQsqaUBKTNV-1" source="oH-rfcBVR8izi7uhG8WI-2" target="oH-rfcBVR8izi7uhG8WI-16">
          <mxGeometry width="50" height="50" relative="1" as="geometry">
            <mxPoint x="354" y="400" as="sourcePoint" />
            <mxPoint x="354" y="320" as="targetPoint" />
          </mxGeometry>
        </mxCell>
        <mxCell id="oH-rfcBVR8izi7uhG8WI-16" value="has" style="rhombus;whiteSpace=wrap;html=1;" vertex="1" parent="WIyWlLk6GJQsqaUBKTNV-1">
          <mxGeometry x="334" y="340" width="40" height="40" as="geometry" />
        </mxCell>
        <mxCell id="oH-rfcBVR8izi7uhG8WI-18" value="n" style="rounded=0;whiteSpace=wrap;html=1;" vertex="1" parent="WIyWlLk6GJQsqaUBKTNV-1">
          <mxGeometry x="360" y="340" width="20" height="10" as="geometry" />
        </mxCell>
        <mxCell id="oH-rfcBVR8izi7uhG8WI-19" value="1" style="rounded=0;whiteSpace=wrap;html=1;" vertex="1" parent="WIyWlLk6GJQsqaUBKTNV-1">
          <mxGeometry x="360" y="370" width="20" height="10" as="geometry" />
        </mxCell>
        <mxCell id="oH-rfcBVR8izi7uhG8WI-20" value="име" style="ellipse;whiteSpace=wrap;html=1;" vertex="1" parent="WIyWlLk6GJQsqaUBKTNV-1">
          <mxGeometry x="261" y="430" width="73" height="50" as="geometry" />
        </mxCell>
        <mxCell id="oH-rfcBVR8izi7uhG8WI-21" value="телефон" style="ellipse;whiteSpace=wrap;html=1;" vertex="1" parent="WIyWlLk6GJQsqaUBKTNV-1">
          <mxGeometry x="350" y="430" width="80" height="50" as="geometry" />
        </mxCell>
        <mxCell id="oH-rfcBVR8izi7uhG8WI-22" value="адрес" style="ellipse;whiteSpace=wrap;html=1;" vertex="1" parent="WIyWlLk6GJQsqaUBKTNV-1">
          <mxGeometry x="404" y="380" width="66" height="40" as="geometry" />
        </mxCell>
        <mxCell id="oH-rfcBVR8izi7uhG8WI-23" value="id" style="ellipse;whiteSpace=wrap;html=1;" vertex="1" parent="WIyWlLk6GJQsqaUBKTNV-1">
          <mxGeometry x="250" y="380" width="60" height="45" as="geometry" />
        </mxCell>
        <mxCell id="oH-rfcBVR8izi7uhG8WI-24" value="дата на доставка" style="ellipse;whiteSpace=wrap;html=1;" vertex="1" parent="WIyWlLk6GJQsqaUBKTNV-1">
          <mxGeometry x="250" y="310" width="80" height="40" as="geometry" />
        </mxCell>
        <mxCell id="oH-rfcBVR8izi7uhG8WI-25" value="id" style="ellipse;whiteSpace=wrap;html=1;" vertex="1" parent="WIyWlLk6GJQsqaUBKTNV-1">
          <mxGeometry x="250" y="250" width="61" height="40" as="geometry" />
        </mxCell>
        <mxCell id="oH-rfcBVR8izi7uhG8WI-26" value="обща цена" style="ellipse;whiteSpace=wrap;html=1;" vertex="1" parent="WIyWlLk6GJQsqaUBKTNV-1">
          <mxGeometry x="414" y="280" width="85" height="50" as="geometry" />
        </mxCell>
        <mxCell id="oH-rfcBVR8izi7uhG8WI-27" value="количество" style="ellipse;whiteSpace=wrap;html=1;" vertex="1" parent="WIyWlLk6GJQsqaUBKTNV-1">
          <mxGeometry x="440" y="220" width="70" height="40" as="geometry" />
        </mxCell>
        <mxCell id="oH-rfcBVR8izi7uhG8WI-28" value="" style="endArrow=none;html=1;rounded=0;entryX=0;entryY=0.5;entryDx=0;entryDy=0;exitX=1;exitY=0.5;exitDx=0;exitDy=0;" edge="1" parent="WIyWlLk6GJQsqaUBKTNV-1" source="oH-rfcBVR8izi7uhG8WI-11" target="oH-rfcBVR8izi7uhG8WI-27">
          <mxGeometry width="50" height="50" relative="1" as="geometry">
            <mxPoint x="390" y="400" as="sourcePoint" />
            <mxPoint x="440" y="350" as="targetPoint" />
          </mxGeometry>
        </mxCell>
      </root>
    </mxGraphModel>
  </diagram>
</mxfile>
